HIERARCHY
ROOT Hips
{
 OFFSET 0.000000 0.000000 0.000000
 CHANNELS 6 Xposition Yposition Zposition Yrotation Xrotation Zrotation
 JOINT Chest
 {
  OFFSET 0.000000 9.585900 0.002600
  CHANNELS 3 Yrotation Xrotation Zrotation
  JOINT Chest2
  {
   OFFSET 0.000000 9.601200 -0.005300
   CHANNELS 3 Yrotation Xrotation Zrotation
   JOINT Chest3
   {
    OFFSET 0.000000 9.561800 0.000000
    CHANNELS 3 Yrotation Xrotation Zrotation
    JOINT Chest4
    {
     OFFSET 0.000000 9.552100 0.000000
     CHANNELS 3 Yrotation Xrotation Zrotation
     JOINT Neck
     {
      OFFSET 0.000000 14.453000 0.000000
      CHANNELS 3 Yrotation Xrotation Zrotation
      JOINT Head
      {
       OFFSET 0.000000 8.936500 -0.011300
       CHANNELS 3 Yrotation Xrotation Zrotation
       End Site
       {
        OFFSET 0.000000 17.073600 -0.006000
       }
      }
     }
     JOINT RightCollar
     {
      OFFSET -2.921100 9.558500 0.000000
      CHANNELS 3 Yrotation Xrotation Zrotation
      JOINT RightShoulder
      {
       OFFSET -13.519700 0.000000 0.000000
       CHANNELS 3 Yrotation Xrotation Zrotation
       JOINT RightElbow
       {
        OFFSET 0.000000 -29.696600 0.000000
        CHANNELS 3 Yrotation Xrotation Zrotation
        JOINT RightWrist
        {
         OFFSET 0.000000 -24.004700 0.000000
         CHANNELS 3 Yrotation Xrotation Zrotation
         End Site
         {
          OFFSET 0.000000 -17.728500 0.000000
         }
        }
       }
      }
     }
     JOINT LeftCollar
     {
      OFFSET 2.921100 9.558500 0.000000
      CHANNELS 3 Yrotation Xrotation Zrotation
      JOINT LeftShoulder
      {
       OFFSET 13.519700 0.000000 0.000000
       CHANNELS 3 Yrotation Xrotation Zrotation
       JOINT LeftElbow
       {
        OFFSET 0.000000 -29.696600 0.000000
        CHANNELS 3 Yrotation Xrotation Zrotation
        JOINT LeftWrist
        {
         OFFSET 0.000000 -24.004700 0.000000
         CHANNELS 3 Yrotation Xrotation Zrotation
         End Site
         {
          OFFSET 0.000000 -17.728500 0.000000
         }
        }
       }
      }
     }
    }
   }
  }
 }
 JOINT RightHip
 {
  OFFSET -7.771700 -0.012900 -0.001300
  CHANNELS 3 Yrotation Xrotation Zrotation
  JOINT RightKnee
  {
   OFFSET 0.000000 -40.869800 0.001200
   CHANNELS 3 Yrotation Xrotation Zrotation
   JOINT RightAnkle
   {
    OFFSET 0.000000 -39.717900 0.002100
    CHANNELS 3 Yrotation Xrotation Zrotation
    JOINT RightToe
    {
     OFFSET 0.000000 -4.965400 11.033500
     CHANNELS 3 Yrotation Xrotation Zrotation
     End Site
     {
      OFFSET 0.000000 -1.423100 5.872300
     }
    }
   }
  }
 }
 JOINT LeftHip
 {
  OFFSET 7.771700 -0.012900 -0.001300
  CHANNELS 3 Yrotation Xrotation Zrotation
  JOINT LeftKnee
  {
   OFFSET 0.000000 -40.869800 0.001200
   CHANNELS 3 Yrotation Xrotation Zrotation
   JOINT LeftAnkle
   {
    OFFSET 0.000000 -39.717900 0.002100
    CHANNELS 3 Yrotation Xrotation Zrotation
    JOINT LeftToe
    {
     OFFSET 0.000000 -4.965400 11.033500
     CHANNELS 3 Yrotation Xrotation Zrotation
     End Site
     {
      OFFSET 0.000000 -1.423100 5.872300
     }
    }
   }
  }
 }
}
MOTION
Frames: 11
Frame Time: 0.008333
0.000000 85.388000 0.000000 0.000000 -5.767877 0.000000 0.000000 11.653817 0.000000 0.000000 -5.885947 0.000000 0.000000 -0.000000 0.000000 0.000000 -0.000000 0.000000 0.000000 12.528835 0.000000 0.000000 0.711642 0.000000 0.000000 -0.000000 0.000000 0.000000 0.000000 -90.000000 0.000000 -2.309062 0.000000 0.000000 2.309062 0.000000 0.000000 -0.000000 0.000000 0.000000 -0.000000 90.000000 0.000000 -2.309062 0.000000 0.000000 2.309062 0.000000 0.000000 8.520406 0.000000 0.000000 1.905762 0.000000 -0.000000 -4.658285 0.000000 0.000000 -0.000000 0.000000 0.000000 8.520406 0.000000 0.000000 1.905762 0.000000 -0.000000 -4.658285 0.000000 0.000000 -0.000000 0.000000
-58.890248 48.568996 16.377992 174.066810 -28.635111 -0.288610 -0.244886 12.533092 1.745304 -0.297725 7.168844 1.442266 -0.348981 8.964953 1.803302 -0.299176 7.168986 1.441988 -0.946571 20.375062 -2.830522 -0.885652 2.050252 -4.872970 6.826656 5.390374 -4.307658 -0.241064 -23.279050 -9.875850 35.161071 -54.902571 -21.368103 8.413484 3.165891 -38.733661 -1.621827 2.068692 -4.687772 4.950185 -28.070028 -3.639096 -63.860323 -34.337564 38.334505 -7.445655 15.188404 34.664483 22.669039 -53.952133 -28.734251 -106.382427 67.062788 -98.057128 1.788612 -3.865543 3.314073 0.201946 -0.956620 0.091577 -3.275395 -55.748302 12.164246 97.448830 82.540270 95.236699 -6.509495 -9.157441 -0.701341 0.265012 0.782525 0.115172
-58.889969 48.568300 16.377935 174.068156 -28.632926 -0.292512 -0.246879 12.531221 1.747830 -0.298605 7.170411 1.444006 -0.347763 8.964347 1.802986 -0.299679 7.168847 1.442513 -0.942964 20.371326 -2.832982 -0.877381 2.039741 -4.878105 6.825453 5.389343 -4.309067 -0.242123 -23.280931 -9.875329 35.152797 -54.901318 -21.373491 8.414905 3.163600 -38.717298 -1.623202 2.061649 -4.689569 4.951523 -28.063765 -3.639119 -63.858104 -34.327156 38.337245 -7.441364 15.180513 34.664521 22.665647 -53.955441 -28.729721 -106.381835 67.060743 -98.056975 1.791222 -3.866674 3.315557 0.199584 -0.956446 0.090548 -3.282398 -55.752049 12.173054 97.456777 82.541116 95.244491 -6.509748 -9.155756 -0.703975 0.262989 0.782587 0.118955
-58.890210 48.567623 16.377421 174.067233 -28.633021 -0.292831 -0.246438 12.531914 1.747165 -0.299356 7.169755 1.445974 -0.346626 8.964771 1.802464 -0.299629 7.171023 1.443887 -0.940394 20.366086 -2.834913 -0.874472 2.035129 -4.879338 6.825235 5.384465 -4.308112 -0.239962 -23.276507 -9.878874 35.145597 -54.909428 -21.373553 8.418655 3.168020 -38.710648 -1.624596 2.058974 -4.690910 4.940838 -28.061461 -3.638027 -63.849180 -34.322188 38.342102 -7.441074 15.180053 34.663732 22.667967 -53.957575 -28.728039 -106.384663 67.056726 -98.061117 1.791144 -3.864107 3.316359 0.200638 -0.958922 0.091064 -3.285012 -55.753879 12.176093 97.474935 82.540057 95.262611 -6.506997 -9.152378 -0.706677 0.273616 0.779863 0.121736
-58.890354 48.566894 16.376631 174.075409 -28.634675 -0.299060 -0.253095 12.534077 1.748835 -0.300455 7.172070 1.444320 -0.347720 8.966095 1.802915 -0.299658 7.178465 1.445273 -0.933405 20.352086 -2.834394 -0.872262 2.030303 -4.880236 6.831144 5.368018 -4.304884 -0.239898 -23.270703 -9.881890 35.141598 -54.913251 -21.373015 8.423349 3.171653 -38.707776 -1.624729 2.049186 -4.689714 4.936787 -28.070053 -3.641319 -63.839129 -34.312002 38.336205 -7.445383 15.177211 34.662015 22.658016 -53.955752 -28.724055 -106.390955 67.060692 -98.066925 1.791509 -3.867033 3.318623 0.199638 -0.959047 0.089531 -3.297303 -55.754213 12.184641 97.495810 82.549263 95.282526 -6.505927 -9.150684 -0.707952 0.274921 0.779812 0.124208
-58.891321 48.565360 16.376713 174.083780 -28.629578 -0.302570 -0.258599 12.529323 1.748331 -0.300557 7.173784 1.444779 -0.348591 8.973027 1.805273 -0.301316 7.175935 1.444642 -0.929708 20.343227 -2.834465 -0.853619 1.993813 -4.882556 6.837280 5.354567 -4.303684 -0.217209 -23.269309 -9.883861 35.115588 -54.905607 -21.376546 8.431704 3.177557 -38.698246 -1.625244 2.043297 -4.690316 4.921302 -28.088413 -3.645404 -63.816552 -34.293239 38.323455 -7.442447 15.178128 34.651353 22.650931 -53.961110 -28.729659 -106.397969 67.063429 -98.070078 1.789007 -3.872388 3.312497 0.204759 -0.956400 0.090289 -3.305516 -55.761125 12.187900 97.489792 82.556907 95.274402 -6.504461 -9.147293 -0.707104 0.269986 0.780580 0.125217
-58.892817 48.564342 16.375109 174.092331 -28.635283 -0.304064 -0.266214 12.534711 1.749118 -0.302182 7.178393 1.445008 -0.348957 8.970954 1.802246 -0.301757 7.176941 1.444618 -0.926498 20.339689 -2.832661 -0.846499 1.978852 -4.884751 6.843964 5.343234 -4.302430 -0.212654 -23.263593 -9.885909 35.096622 -54.912846 -21.373415 8.442392 3.189461 -38.685750 -1.631545 2.038342 -4.690379 4.926751 -28.089833 -3.646502 -63.810214 -34.286901 38.322447 -7.448759 15.182210 34.612931 22.654283 -53.951999 -28.750153 -106.438658 67.081174 -98.097117 1.788057 -3.880287 3.309972 0.198856 -0.957652 0.086728 -3.309590 -55.757871 12.186966 97.511556 82.561903 95.295256 -6.509831 -9.145881 -0.708505 0.277024 0.779653 0.128106
-58.894196 48.562517 16.374067 174.097916 -28.637009 -0.307926 -0.271574 12.536238 1.751470 -0.302193 7.179943 1.444775 -0.349684 8.971761 1.801715 -0.302334 7.177877 1.444701 -0.923410 20.340331 -2.829514 -0.838004 1.962870 -4.888704 6.848186 5.336316 -4.302325 -0.204729 -23.263239 -9.887537 35.071119 -54.928645 -21.364208 8.458866 3.208055 -38.676532 -1.641719 2.027711 -4.682577 4.939008 -28.092205 -3.653036 -63.796838 -34.284528 38.309941 -7.452944 15.180890 34.582207 22.668008 -53.946325 -28.773154 -106.475260 67.088416 -98.116612 1.794758 -3.883561 3.308408 0.196433 -0.960532 0.084524 -3.337780 -55.757442 12.210599 97.557289 82.566708 95.328523 -6.512167 -9.144440 -0.712076 0.287286 0.778494 0.132919
-58.896801 48.560556 16.371808 174.097829 -28.645721 -0.304629 -0.272697 12.544852 1.748608 -0.302371 7.181795 1.445762 -0.356486 8.988110 1.807267 -0.297241 7.172128 1.442977 -0.926656 20.334966 -2.832982 -0.830760 1.949988 -4.893619 6.851290 5.321437 -4.308016 -0.115015 -23.277951 -9.892573 34.994349 -54.896850 -21.372908 8.468121 3.220816 -38.673423 -1.646147 2.007853 -4.682357 4.950615 -28.112599 -3.654904 -63.774683 -34.282529 38.277651 -7.451866 15.177410 34.539808 22.698396 -53.929729 -28.808420 -106.521503 67.097322 -98.139520 1.799923 -3.889112 3.308929 0.193614 -0.962060 0.080998 -3.347353 -55.749365 12.219961 97.623503 82.570530 95.381355 -6.513067 -9.152932 -0.703193 0.284390 0.781547 0.129075
-58.899869 48.558204 16.368507 174.106336 -28.660519 -0.306653 -0.281075 12.559723 1.746651 -0.314618 7.193245 1.448611 -0.357776 8.990869 1.804876 -0.294782 7.177431 1.443418 -0.926841 20.323892 -2.837198 -0.818834 1.935754 -4.900308 6.868570 5.293045 -4.311713 -0.049481 -23.264205 -9.911807 34.924502 -54.899495 -21.372955 8.456676 3.245325 -38.642268 -1.643543 1.976154 -4.680255 4.961260 -28.105816 -3.659076 -63.719420 -34.337656 38.244069 -7.501765 15.185312 34.482468 22.726882 -53.904946 -28.848017 -106.578551 67.107410 -98.167788 1.806593 -3.890047 3.309398 0.189028 -0.968992 0.078758 -3.374517 -55.736410 12.236855 97.697641 82.573406 95.441342 -6.516853 -9.154467 -0.702156 0.288649 0.779930 0.130618
-58.904427 48.554503 16.365363 174.116250 -28.672357 -0.306434 -0.300041 12.569282 1.744008 -0.319636 7.201960 1.445685 -0.368935 9.003527 1.803971 -0.288089 7.180888 1.440604 -0.927840 20.310458 -2.841856 -0.796375 1.912601 -4.910152 6.886129 5.255283 -4.317861 0.039455 -23.232758 -9.945252 34.744757 -54.973289 -21.271490 8.498545 3.312540 -38.621340 -1.639447 1.934895 -4.675772 4.913479 -28.082417 -3.627196 -63.628290 -34.397812 38.222820 -7.524822 15.184826 34.419379 22.775867 -53.879125 -28.910693 -106.654536 67.120602 -98.207790 1.819873 -3.890778 3.310606 0.181482 -0.976879 0.076944 -3.409081 -55.728777 12.255973 97.791028 82.573449 95.515891 -6.522360 -9.149482 -0.703410 0.297854 0.771515 0.134610
